<svg width="857" height="443" viewBox="0 0 857 443" fill="none" xmlns="http://www.w3.org/2000/svg">
<rect x="25.042" y="194.167" width="190.231" height="248.333" fill="#899595" stroke="#1C2C35"/>
<path d="M58.5867 126.611C20.92 61.4446 106.394 61.4446 106.394 61.4446L161.446 126.611L239.676 212.556L1.3623 200.278L58.5867 126.611Z" fill="#905A5A"/>
<path d="M1.3623 200.278C1.3623 200.278 96.2533 191.778 58.5867 126.611M1.3623 200.278L239.676 212.556L161.446 126.611L106.394 61.4446C106.394 61.4446 20.92 61.4446 58.5867 126.611M1.3623 200.278L58.5867 126.611" stroke="#66411F"/>
<path d="M109.067 442.5V341.285L155.875 313.544V442.5H109.067Z" fill="#483E1C" stroke="#2A230C"/>
<ellipse cx="146.958" cy="391.056" rx="2.17308" ry="2.83333" fill="#BDB392"/>
<path d="M44.3695 255.302L96.6747 251.093C98.1297 250.976 99.3752 252.125 99.3752 253.585V309.667C99.3752 311.048 98.2559 312.167 96.8752 312.167H51.0922C49.832 312.167 48.7689 311.229 48.6117 309.979L42.0896 258.106C41.9119 256.693 42.9495 255.417 44.3695 255.302Z" fill="#D9D9D9" stroke="#2745B0"/>
<path d="M81.7663 254.111V311.722H58.5868L56.0515 283.861M53.5163 255.056L56.0515 283.861M56.0515 283.861H45.5483H99.1509" stroke="#2745B0"/>
<rect x="329.15" y="267.833" width="236.59" height="174.667" fill="#CDA580" stroke="#395F75"/>
<path d="M370.989 219.32C324.049 172.889 430.567 172.889 430.567 172.889L499.172 219.32L596.663 280.556L299.676 271.808L370.989 219.32Z" fill="#874B81"/>
<path d="M299.676 271.808C299.676 271.808 417.93 265.751 370.989 219.32M299.676 271.808L596.663 280.556L499.172 219.32L430.567 172.889C430.567 172.889 324.049 172.889 370.989 219.32M299.676 271.808L370.989 219.32" stroke="#66411F"/>
<path d="M433.458 442.5V370.924L491.856 351.142V442.5H433.458Z" fill="#F3EABC" stroke="#BDB392"/>
<ellipse cx="480.766" cy="406.167" rx="2.89744" ry="2.83333" fill="#BDB392"/>
<path d="M352.542 310.631L419.706 307.639C421.129 307.576 422.317 308.712 422.317 310.137V347.444C422.317 348.825 421.198 349.944 419.817 349.944H360.449C359.282 349.944 358.27 349.137 358.011 347.998L350.216 313.682C349.87 312.162 350.985 310.7 352.542 310.631Z" fill="#D9D9D9" stroke="#898989"/>
<path d="M399.755 308.889V350.444H370.938L367.786 330.348M364.634 309.57L367.786 330.348M367.786 330.348H354.728H421.369" stroke="#898989"/>
<rect x="675.997" y="154.5" width="158.359" height="288" fill="#E7D182" stroke="#7C602A"/>
<path d="M704.322 76.7563C672.952 1 744.137 1 744.137 1L789.985 76.7563L855.138 176.667L656.664 162.394L704.322 76.7563Z" fill="#94A2BD"/>
<path d="M656.664 162.394C656.664 162.394 735.691 152.513 704.322 76.7563M656.664 162.394L855.138 176.667L789.985 76.7563L744.137 1C744.137 1 672.952 1 704.322 76.7563M656.664 162.394L704.322 76.7563" stroke="#6A7488"/>
<path d="M745.535 442.5V324.978L785.099 292.937V442.5H745.535Z" fill="#BD5959" stroke="#4B1414"/>
<ellipse cx="777.632" cy="382.556" rx="2.17308" ry="3.77778" fill="#F7B9B9"/>
<path d="M692.949 225.715L734.509 220.988C735.992 220.819 737.292 221.979 737.292 223.472V288.889C737.292 290.27 736.172 291.389 734.792 291.389H698.631C697.336 291.389 696.256 290.4 696.141 289.11L690.741 228.42C690.621 227.069 691.601 225.868 692.949 225.715Z" fill="#D9D9D9" stroke="#898989"/>
<path d="M723.226 223.889V290H703.805L701.681 258.028M699.557 224.973L701.681 258.028M701.681 258.028H692.881H737.792" stroke="#898989"/>
</svg>
